<?xml version="1.0" encoding="UTF-8" standalone="no"?>
<svg
   xmlns:dc="http://purl.org/dc/elements/1.1/"
   xmlns:cc="http://creativecommons.org/ns#"
   xmlns:rdf="http://www.w3.org/1999/02/22-rdf-syntax-ns#"
   xmlns:svg="http://www.w3.org/2000/svg"
   xmlns="http://www.w3.org/2000/svg"
   xmlns:sodipodi="http://sodipodi.sourceforge.net/DTD/sodipodi-0.dtd"
   xmlns:inkscape="http://www.inkscape.org/namespaces/inkscape"
   width="24"
   height="24"
   viewBox="0 0 24 24"
   id="svg2"
   version="1.1"
   inkscape:version="0.91 r13725"
   sodipodi:docname="ic_camera_alt_24px.svg">
  <metadata
     id="metadata14">
    <rdf:RDF>
      <cc:Work
         rdf:about="">
        <dc:format>image/svg+xml</dc:format>
        <dc:type
           rdf:resource="http://purl.org/dc/dcmitype/StillImage" />
      </cc:Work>
    </rdf:RDF>
  </metadata>
  <defs
     id="defs12" />
  <sodipodi:namedview
     pagecolor="#ffffff"
     bordercolor="#666666"
     borderopacity="1"
     objecttolerance="10"
     gridtolerance="10"
     guidetolerance="10"
     inkscape:pageopacity="0"
     inkscape:pageshadow="2"
     inkscape:window-width="1107"
     inkscape:window-height="808"
     id="namedview10"
     showgrid="false"
     inkscape:zoom="9.8333333"
     inkscape:cx="12"
     inkscape:cy="12"
     inkscape:window-x="535"
     inkscape:window-y="98"
     inkscape:window-maximized="0"
     inkscape:current-layer="svg2" />
  <circle
     cx="12"
     cy="12"
     r="3.2"
     id="circle4" />
  <path
     d="M9 2l-1.83 2h-3.17c-1.1 0-2 .9-2 2v12c0 1.1.9 2 2 2h16c1.1 0 2-.9 2-2v-12c0-1.1-.9-2-2-2h-3.17l-1.83-2h-6zm3 15c-2.76 0-5-2.24-5-5s2.24-5 5-5 5 2.24 5 5-2.24 5-5 5z"
     id="path6" />
  <path
     d="M0 0h24v24h-24z"
     fill="none"
     id="path8" />
  <path
     style="fill:#00b5ff;fill-opacity:1;fill-rule:evenodd;stroke:#000000;stroke-width:0.058;stroke-miterlimit:4;stroke-dasharray:none;stroke-opacity:1"
     inkscape:connector-curvature="0"
     d="m 15.2741,8.7081509 c -0.841,-0.841 -1.9952,-1.363 -3.277,-1.363 -2.5636,0 -4.6341999,2.0764 -4.6341999,4.6400001 0,2.5636 2.0705999,4.64 4.6341999,4.64 2.1634,0 3.9672,-1.479 4.4834,-3.48 l -1.2064,0 c -0.4756,1.3514 -1.7632,2.32 -3.277,2.32 -1.9198,0 -3.48,-1.5602 -3.48,-3.48 0,-1.9198 1.5602,-3.4800001 3.48,-3.4800001 0.9628,0 1.8212,0.4002 2.4476,1.0324 l -1.8676,1.8676001 4.06,0 0,-4.0600001 z"
     id="path4163"
     sodipodi:nodetypes="csssccsssccccc" />
</svg>
